<svg width="24" height="24" viewBox="0 0 24 24" fill="none" xmlns="http://www.w3.org/2000/svg">
<path d="M9.53906 22.8867C9.03516 22.8867 8.67188 22.6641 8.32031 22.207L2.23828 14.4609C2.01562 14.1797 1.89844 13.875 1.89844 13.6055C1.89844 12.9609 2.35547 12.5039 3.02344 12.5039C3.44531 12.5039 3.73828 12.668 4.03125 13.0781L9.49219 20.2266L20.0156 3.45703C20.2969 3.01172 20.5547 2.85938 21.0234 2.85938C21.668 2.85938 22.0898 3.28125 22.0898 3.92578C22.0898 4.19531 22.0078 4.45312 21.7969 4.79297L10.7227 22.2305C10.4414 22.6641 10.043 22.8867 9.53906 22.8867Z" fill="#FF550B"/>
</svg>
